<svg width="100" height="100" viewBox="0 0 100 100" fill="none" xmlns="http://www.w3.org/2000/svg">
<g clip-path="url(#clip0_52_8)">
<path d="M93.75 75C93.75 76.6576 93.0915 78.2473 91.9194 79.4194C90.7473 80.5915 89.1576 81.25 87.5 81.25H12.5C10.8424 81.25 9.25268 80.5915 8.08058 79.4194C6.90848 78.2473 6.25 76.6576 6.25 75V37.5C6.25 35.8424 6.90848 34.2527 8.08058 33.0806C9.25268 31.9085 10.8424 31.25 12.5 31.25H19.825C24.7952 31.2473 29.561 29.2713 33.075 25.7562L38.2625 20.5813C39.4313 19.4121 41.0156 18.7537 42.6688 18.75H57.3187C58.9762 18.7504 60.5657 19.4091 61.7375 20.5813L66.9125 25.7562C68.6539 27.4982 70.7215 28.88 72.9972 29.8226C75.2728 30.7653 77.7119 31.2503 80.175 31.25H87.5C89.1576 31.25 90.7473 31.9085 91.9194 33.0806C93.0915 34.2527 93.75 35.8424 93.75 37.5V75ZM12.5 25C9.18479 25 6.00537 26.317 3.66117 28.6612C1.31696 31.0054 0 34.1848 0 37.5L0 75C0 78.3152 1.31696 81.4946 3.66117 83.8388C6.00537 86.183 9.18479 87.5 12.5 87.5H87.5C90.8152 87.5 93.9946 86.183 96.3388 83.8388C98.683 81.4946 100 78.3152 100 75V37.5C100 34.1848 98.683 31.0054 96.3388 28.6612C93.9946 26.317 90.8152 25 87.5 25H80.175C76.8601 24.9993 73.6812 23.6819 71.3375 21.3375L66.1625 16.1625C63.8188 13.8181 60.6399 12.5007 57.325 12.5H42.675C39.3601 12.5007 36.1812 13.8181 33.8375 16.1625L28.6625 21.3375C26.3188 23.6819 23.1399 24.9993 19.825 25H12.5Z" fill="black"/>
<path d="M50 68.75C45.856 68.75 41.8817 67.1038 38.9515 64.1735C36.0212 61.2433 34.375 57.269 34.375 53.125C34.375 48.981 36.0212 45.0067 38.9515 42.0765C41.8817 39.1462 45.856 37.5 50 37.5C54.144 37.5 58.1183 39.1462 61.0485 42.0765C63.9788 45.0067 65.625 48.981 65.625 53.125C65.625 57.269 63.9788 61.2433 61.0485 64.1735C58.1183 67.1038 54.144 68.75 50 68.75ZM50 75C55.8016 75 61.3656 72.6953 65.468 68.593C69.5703 64.4906 71.875 58.9266 71.875 53.125C71.875 47.3234 69.5703 41.7594 65.468 37.657C61.3656 33.5547 55.8016 31.25 50 31.25C44.1984 31.25 38.6344 33.5547 34.532 37.657C30.4297 41.7594 28.125 47.3234 28.125 53.125C28.125 58.9266 30.4297 64.4906 34.532 68.593C38.6344 72.6953 44.1984 75 50 75ZM18.75 40.625C18.75 41.4538 18.4208 42.2487 17.8347 42.8347C17.2487 43.4208 16.4538 43.75 15.625 43.75C14.7962 43.75 14.0013 43.4208 13.4153 42.8347C12.8292 42.2487 12.5 41.4538 12.5 40.625C12.5 39.7962 12.8292 39.0013 13.4153 38.4153C14.0013 37.8292 14.7962 37.5 15.625 37.5C16.4538 37.5 17.2487 37.8292 17.8347 38.4153C18.4208 39.0013 18.75 39.7962 18.75 40.625Z" fill="black"/>
</g>
<defs>
<clipPath id="clip0_52_8">
<rect width="100" height="100" fill="white"/>
</clipPath>
</defs>
</svg>
