<svg width="100" height="100" viewBox="0 0 100 100" fill="none" xmlns="http://www.w3.org/2000/svg">
<path d="M84.375 18.75C85.2038 18.75 85.9987 19.0792 86.5847 19.6653C87.1708 20.2513 87.5 21.0462 87.5 21.875V68.75H12.5V21.875C12.5 21.0462 12.8292 20.2513 13.4153 19.6653C14.0013 19.0792 14.7962 18.75 15.625 18.75H84.375ZM15.625 12.5C13.1386 12.5 10.754 13.4877 8.99587 15.2459C7.23772 17.004 6.25 19.3886 6.25 21.875V75H93.75V21.875C93.75 19.3886 92.7623 17.004 91.0041 15.2459C89.246 13.4877 86.8614 12.5 84.375 12.5H15.625ZM0 78.125H100C100 80.6114 99.0123 82.996 97.2541 84.7541C95.496 86.5123 93.1114 87.5 90.625 87.5H9.375C6.8886 87.5 4.50403 86.5123 2.74587 84.7541C0.98772 82.996 0 80.6114 0 78.125H0Z" fill="black"/>
</svg>
