<svg width="100" height="100" viewBox="0 0 100 100" fill="none" xmlns="http://www.w3.org/2000/svg">
<path d="M56.25 31.25C56.25 30.4212 55.9208 29.6263 55.3347 29.0403C54.7487 28.4542 53.9538 28.125 53.125 28.125C52.2962 28.125 51.5013 28.4542 50.9153 29.0403C50.3292 29.6263 50 30.4212 50 31.25V50H37.5C36.6712 50 35.8763 50.3292 35.2903 50.9153C34.7042 51.5013 34.375 52.2962 34.375 53.125C34.375 53.9538 34.7042 54.7487 35.2903 55.3347C35.8763 55.9208 36.6712 56.25 37.5 56.25H53.125C53.9538 56.25 54.7487 55.9208 55.3347 55.3347C55.9208 54.7487 56.25 53.9538 56.25 53.125V31.25Z" fill="black"/>
<path d="M25 10.4188V12.8125C21.4707 13.5329 18.2988 15.4506 16.0209 18.2409C13.7431 21.0313 12.4993 24.523 12.5 28.125V71.875C12.4993 75.477 13.7431 78.9687 16.0209 81.7591C18.2988 84.5494 21.4707 86.4671 25 87.1875V89.5813C25 95.3313 29.6625 100 35.4187 100H64.5813C70.3313 100 75 95.3375 75 89.5813V87.1875C78.5293 86.4671 81.7012 84.5494 83.9791 81.7591C86.2569 78.9687 87.5007 75.477 87.5 71.875V50H90.625C91.4538 50 92.2487 49.6708 92.8347 49.0847C93.4208 48.4987 93.75 47.7038 93.75 46.875V34.375C93.75 33.5462 93.4208 32.7513 92.8347 32.1653C92.2487 31.5792 91.4538 31.25 90.625 31.25H87.5V28.125C87.5007 24.523 86.2569 21.0313 83.9791 18.2409C81.7012 15.4506 78.5293 13.5329 75 12.8125V10.4188C75 4.66875 70.3375 0 64.5813 0H35.4187C29.6687 0 25 4.6625 25 10.4188ZM28.125 18.75H71.875C74.3614 18.75 76.746 19.7377 78.5041 21.4959C80.2623 23.254 81.25 25.6386 81.25 28.125V71.875C81.25 74.3614 80.2623 76.746 78.5041 78.5041C76.746 80.2623 74.3614 81.25 71.875 81.25H28.125C25.6386 81.25 23.254 80.2623 21.4959 78.5041C19.7377 76.746 18.75 74.3614 18.75 71.875V28.125C18.75 25.6386 19.7377 23.254 21.4959 21.4959C23.254 19.7377 25.6386 18.75 28.125 18.75Z" fill="black"/>
</svg>
