<svg width="100" height="100" viewBox="0 0 100 100" fill="none" xmlns="http://www.w3.org/2000/svg">
<path d="M15.625 84.375C15.625 83.5462 15.9542 82.7513 16.5403 82.1653C17.1263 81.5792 17.9212 81.25 18.75 81.25H81.25C82.0788 81.25 82.8737 81.5792 83.4597 82.1653C84.0458 82.7513 84.375 83.5462 84.375 84.375C84.375 85.2038 84.0458 85.9987 83.4597 86.5847C82.8737 87.1708 82.0788 87.5 81.25 87.5H18.75C17.9212 87.5 17.1263 87.1708 16.5403 86.5847C15.9542 85.9987 15.625 85.2038 15.625 84.375ZM87.4437 18.75L87.5938 18.7562C88.7615 18.8358 89.9031 19.1392 90.9563 19.65C91.7147 20.003 92.366 20.5508 92.8438 21.2375C93.2625 21.8625 93.75 22.9688 93.75 25V62.4438L93.7437 62.5938C93.6636 63.7614 93.3602 64.9029 92.85 65.9563C92.4968 66.7145 91.949 67.3658 91.2625 67.8437C90.6375 68.2625 89.5312 68.75 87.5 68.75H12.5563L12.4062 68.7437C11.2386 68.6636 10.0971 68.3602 9.04375 67.85C8.28546 67.4968 7.63422 66.949 7.15625 66.2625C6.7375 65.6375 6.25 64.5312 6.25 62.5V25.0562L6.25625 24.9062C6.33575 23.7385 6.63918 22.5969 7.15 21.5437C7.50324 20.7855 8.05097 20.1342 8.7375 19.6562C9.3625 19.2375 10.4688 18.75 12.5 18.75H87.4437ZM87.5 12.5H12.5C0 12.5 0 25 0 25V62.5C0 75 12.5 75 12.5 75H87.5C100 75 100 62.5 100 62.5V25C100 12.5 87.5 12.5 87.5 12.5Z" fill="black"/>
</svg>
